<svg width="64" height="64" viewBox="0 0 64 64" fill="none" xmlns="http://www.w3.org/2000/svg">
<path d="M51.22 48.4668H12V49.2868H51.22V48.4668Z" fill="url(#paint0_linear)"/>
<path d="M38.3117 16.0664H26.0617C25.6199 16.0664 25.2617 16.4246 25.2617 16.8664V28.9564C25.2617 29.3982 25.6199 29.7564 26.0617 29.7564H38.3117C38.7535 29.7564 39.1117 29.3982 39.1117 28.9564V16.8664C39.1117 16.4246 38.7535 16.0664 38.3117 16.0664Z" stroke="#485CC7" stroke-width="2.11" stroke-miterlimit="10"/>
<path d="M49.1987 20.6865H14.8688C13.8194 20.6865 12.9688 21.5372 12.9688 22.5865V47.0165C12.9688 48.0659 13.8194 48.9165 14.8688 48.9165H49.1987C50.2481 48.9165 51.0988 48.0659 51.0988 47.0165V22.5865C51.0988 21.5372 50.2481 20.6865 49.1987 20.6865Z" fill="#A7E2F9"/>
<path d="M51.0503 31.0469H13.0703V32.3769H51.0503V31.0469Z" fill="#77D9F7"/>
<path d="M22.0017 30.166C22.0017 29.6137 21.5562 29.166 21.0067 29.166C20.4572 29.166 20.0117 29.6137 20.0117 30.166V33.706C20.0117 34.2583 20.4572 34.706 21.0067 34.706C21.5562 34.706 22.0017 34.2583 22.0017 33.706V30.166Z" fill="#485CC7"/>
<path d="M43.5213 30.166C43.5213 29.6137 43.0758 29.166 42.5262 29.166C41.9767 29.166 41.5312 29.6137 41.5312 30.166V33.706C41.5312 34.2583 41.9767 34.706 42.5262 34.706C43.0758 34.706 43.5213 34.2583 43.5213 33.706V30.166Z" fill="#485CC7"/>
<defs>
<linearGradient id="paint0_linear" x1="12" y1="48.8768" x2="51.22" y2="48.8768" gradientUnits="userSpaceOnUse">
<stop stop-opacity="0"/>
<stop offset="0.07" stop-opacity="0.16"/>
<stop offset="0.5" stop-opacity="0.3"/>
<stop offset="0.93" stop-opacity="0.16"/>
<stop offset="1" stop-opacity="0"/>
</linearGradient>
</defs>
</svg>
