<svg width="64" height="64" viewBox="0 0 64 64" fill="none" xmlns="http://www.w3.org/2000/svg">
<path d="M51.2409 25.6899H14.7109V45.1999H51.2409V25.6899Z" fill="#A7E2F9"/>
<path d="M51.2409 25.6899H14.7109V45.1999H51.2409V25.6899ZM49.7509 39.0899C48.4671 39.1019 47.2304 39.5752 46.2666 40.4234C45.3027 41.2716 44.6761 42.4381 44.5009 43.7099H21.5009C21.3123 42.4439 20.6816 41.2855 19.7207 40.4399C18.7598 39.5943 17.5307 39.1161 16.2509 39.0899V31.7899C17.5263 31.7932 18.7599 31.3356 19.7246 30.5013C20.6893 29.6671 21.3201 28.5124 21.5009 27.2499H44.4309C44.6118 28.5124 45.2426 29.6671 46.2073 30.5013C47.172 31.3356 48.4056 31.7932 49.6809 31.7899L49.7509 39.0899Z" fill="#77D9F7"/>
<path d="M33.0103 38.6002C34.7721 38.6002 36.2003 37.172 36.2003 35.4102C36.2003 33.6484 34.7721 32.2202 33.0103 32.2202C31.2485 32.2202 29.8203 33.6484 29.8203 35.4102C29.8203 37.172 31.2485 38.6002 33.0103 38.6002Z" fill="#77D9F7"/>
<path d="M19.51 34.44C23.6577 34.44 27.02 30.9836 27.02 26.72C27.02 22.4564 23.6577 19 19.51 19C15.3623 19 12 22.4564 12 26.72C12 30.9836 15.3623 34.44 19.51 34.44Z" fill="#485CC7"/>
<path d="M19.5098 22.6499L22.4298 25.0499L21.5898 26.0999L19.5098 24.4299L17.4198 26.0999L16.5898 25.0499L19.5098 22.6499Z" fill="white"/>
<path d="M20.1413 23.7002H18.7812V30.7902H20.1413V23.7002Z" fill="white"/>
</svg>
