<svg width="64" height="64" viewBox="0 0 64 64" fill="none" xmlns="http://www.w3.org/2000/svg">
<path d="M48.74 50.0898H16V50.9098H48.74V50.0898Z" fill="url(#paint0_linear)"/>
<path d="M28.1817 13L26.2617 32.81L36.9117 33.93L38.8317 14.11L28.1817 13Z" fill="#A7E2F9"/>
<path d="M28.1817 13L26.2617 32.81L36.9117 33.93L38.8317 14.11L28.1817 13ZM35.4217 14.61C35.366 15.306 35.5597 15.999 35.9683 16.5652C36.3769 17.1314 36.9736 17.5336 37.6517 17.7L36.4117 30.21C35.7098 30.2269 35.0422 30.5176 34.5517 31.02C34.0683 31.5092 33.7441 32.1332 33.6217 32.81L29.6217 32.32C29.6933 31.6066 29.4933 30.8925 29.0617 30.32C28.6529 29.7651 28.0616 29.3721 27.3917 29.21L28.6717 16.77C29.3661 16.7273 30.0241 16.4447 30.533 15.9704C31.042 15.4961 31.3703 14.8597 31.4617 14.17L35.4217 14.61Z" fill="#77D9F7"/>
<path d="M31.6385 24.9498C31.9324 25.1201 32.2702 25.1997 32.6092 25.1783C32.9483 25.1569 33.2734 25.0357 33.5436 24.8297C33.8138 24.6238 34.017 24.3425 34.1275 24.0213C34.238 23.7 34.2509 23.3532 34.1646 23.0247C34.0783 22.6961 33.8966 22.4004 33.6425 22.175C33.3883 21.9496 33.0731 21.8044 32.7366 21.7579C32.4001 21.7114 32.0573 21.7656 31.7515 21.9136C31.4458 22.0616 31.1907 22.2969 31.0185 22.5898C30.8994 22.7841 30.8209 23.0006 30.7876 23.2261C30.7544 23.4516 30.7671 23.6816 30.825 23.902C30.8829 24.1225 30.9848 24.329 31.1246 24.509C31.2644 24.6891 31.4392 24.839 31.6385 24.9498V24.9498Z" fill="#77D9F7"/>
<path d="M16.9688 20.37L23.4687 39.19L33.6887 35.78L27.1187 16.96L16.9688 20.37Z" fill="#A7E2F9"/>
<path d="M16.9688 20.37L23.4687 39.19L33.6887 35.78L27.1187 16.96L16.9688 20.37ZM24.2088 18.82C24.4258 19.4851 24.8916 20.0405 25.5087 20.37C26.112 20.7224 26.8193 20.8533 27.5087 20.74L31.6987 32.56C31.0741 32.8678 30.5844 33.3944 30.3226 34.0397C30.0608 34.685 30.0452 35.4039 30.2787 36.06L26.4387 37.36C26.2217 36.6949 25.7559 36.1395 25.1388 35.81C24.5373 35.4526 23.8282 35.3214 23.1387 35.44L19.0087 23.65C19.639 23.3398 20.1331 22.8086 20.3968 22.1576C20.6605 21.5066 20.6755 20.7813 20.4387 20.12L24.2088 18.82Z" fill="#77D9F7"/>
<path d="M25.1419 29.7801C25.3697 29.8044 25.6001 29.7836 25.8199 29.7189C26.0397 29.6541 26.2446 29.5467 26.4229 29.4028C26.6012 29.2588 26.7494 29.0812 26.859 28.88C26.9686 28.6788 27.0376 28.458 27.0619 28.2301C27.0862 28.0023 27.0653 27.7719 27.0006 27.5521C26.9358 27.3323 26.8284 27.1274 26.6845 26.9491C26.5406 26.7708 26.3629 26.6226 26.1617 26.513C25.9605 26.4034 25.7397 26.3344 25.5119 26.3101C25.2839 26.2852 25.0533 26.3055 24.8332 26.37C24.6131 26.4345 24.408 26.5419 24.2296 26.6859C24.0511 26.83 23.903 27.0079 23.7935 27.2094C23.6841 27.4109 23.6155 27.632 23.5919 27.8601C23.5627 28.0888 23.5801 28.3209 23.6429 28.5427C23.7058 28.7644 23.8128 28.9712 23.9576 29.1505C24.1024 29.3299 24.2819 29.4781 24.4854 29.5863C24.6889 29.6945 24.9122 29.7604 25.1419 29.7801V29.7801Z" fill="#77D9F7"/>
<path d="M40.2489 39.64L48.7289 22.25L39.3589 17.79L30.8789 35.19L40.2489 39.64Z" fill="#A7E2F9"/>
<path d="M40.2489 39.64L48.7289 22.25L39.3589 17.79L30.8789 35.19L40.2489 39.64ZM34.1789 35.87C34.4912 35.2509 34.5591 34.5369 34.3689 33.87C34.1825 33.2087 33.7635 32.6369 33.1889 32.26L38.5189 21.26C39.1782 21.4698 39.8923 21.4234 40.5189 21.13C41.1447 20.8688 41.6509 20.384 41.9389 19.77L45.4689 21.44C45.1566 22.0592 45.0887 22.7732 45.2789 23.44C45.4637 24.0993 45.8743 24.6727 46.4389 25.06L41.1189 36.06C40.4661 35.867 39.766 35.9106 39.1422 36.1832C38.5183 36.4557 38.0108 36.9398 37.7089 37.55L34.1789 35.87Z" fill="#77D9F7"/>
<path d="M39.6289 30.3602C39.9602 30.385 40.2915 30.311 40.5808 30.1475C40.8701 29.984 41.1044 29.7383 41.2541 29.4417C41.4038 29.145 41.4622 28.8106 41.4218 28.4807C41.3814 28.1509 41.2441 27.8405 41.0273 27.5886C40.8104 27.3368 40.5238 27.155 40.2036 27.0661C39.8834 26.9772 39.5441 26.9853 39.2284 27.0893C38.9128 27.1933 38.6352 27.3885 38.4305 27.6504C38.2259 27.9122 38.1035 28.2288 38.0789 28.5602C38.0458 29.0044 38.1905 29.4436 38.4812 29.7811C38.7718 30.1187 39.1847 30.327 39.6289 30.3602V30.3602Z" fill="#77D9F7"/>
<path d="M45.4286 50.7102H17.8786L17.8086 29.5302L45.3586 29.4702C45.6121 29.4696 45.8564 29.5653 46.0421 29.7379C46.2277 29.9106 46.3408 30.1473 46.3586 30.4002V49.6502C46.346 49.897 46.2589 50.1341 46.1086 50.3302C46.0337 50.4432 45.933 50.5366 45.8147 50.6027C45.6964 50.6688 45.564 50.7057 45.4286 50.7102Z" fill="#485CC7"/>
<path d="M39.24 37.3899H46.92V42.7799H39.24C38.7926 42.773 38.3644 42.597 38.0416 42.2871C37.7187 41.9773 37.5252 41.5567 37.5 41.1099V39.0599C37.5026 38.8354 37.5498 38.6136 37.6391 38.4076C37.7283 38.2015 37.8577 38.0154 38.0197 37.8599C38.1816 37.7044 38.373 37.5828 38.5825 37.5021C38.7921 37.4214 39.0156 37.3832 39.24 37.3899Z" fill="#3C549E"/>
<defs>
<linearGradient id="paint0_linear" x1="16" y1="50.4998" x2="48.73" y2="50.4998" gradientUnits="userSpaceOnUse">
<stop stop-opacity="0"/>
<stop offset="0.07" stop-opacity="0.16"/>
<stop offset="0.5" stop-opacity="0.3"/>
<stop offset="0.93" stop-opacity="0.16"/>
<stop offset="1" stop-opacity="0"/>
</linearGradient>
</defs>
</svg>
