<svg width="56" height="56" fill="none" xmlns="http://www.w3.org/2000/svg"><g clip-path="url(#clip0)"><path d="M500.133-1309.6H-1291.47v2421.33H500.133V-1309.6z" stroke="#2ED06E" stroke-width="3.67" stroke-miterlimit="10"/><path d="M46.533 54.4H9.6v1.067h36.933V54.4z" fill="url(#paint0_linear)"/><path d="M15.6.933h24.532A2.267 2.267 0 0142.266 3.2v49.333a2.133 2.133 0 01-2.134 2.134H15.866a2.133 2.133 0 01-2.134-2.134v-49.6a2 2 0 011.867-2z" fill="#77D9F7"/><path d="M21.067 19.6a2.667 2.667 0 100-5.333 2.667 2.667 0 000 5.333zM28 19.6a2.667 2.667 0 100-5.333 2.667 2.667 0 000 5.333zM34.934 19.6a2.667 2.667 0 100-5.333 2.667 2.667 0 000 5.333zM21.067 26.534a2.667 2.667 0 100-5.334 2.667 2.667 0 000 5.334zM28 26.534a2.667 2.667 0 100-5.334 2.667 2.667 0 000 5.334zM34.934 26.534a2.667 2.667 0 100-5.334 2.667 2.667 0 000 5.334zM21.067 33.334a2.667 2.667 0 100-5.334 2.667 2.667 0 000 5.334zM28 33.334A2.667 2.667 0 1028 28a2.667 2.667 0 000 5.334zM34.934 33.334a2.667 2.667 0 100-5.334 2.667 2.667 0 000 5.334zM21.067 40.134a2.667 2.667 0 100-5.334 2.667 2.667 0 000 5.334zM28 40.134a2.667 2.667 0 100-5.334 2.667 2.667 0 000 5.334zM34.934 40.134a2.667 2.667 0 100-5.334 2.667 2.667 0 000 5.334z" fill="#fff"/><path d="M28 47.067a2.667 2.667 0 100-5.334 2.667 2.667 0 000 5.334z" fill="#485CC7"/><path opacity=".32" d="M41.732 52.267v-49.2A2.267 2.267 0 0040 .8h-2.667L14.8 54.533h24.666a2.267 2.267 0 002.267-2.266z" fill="#fff"/><path d="M39.6 1.467A2.133 2.133 0 0141.733 3.6v48.267a2.267 2.267 0 01-2.133 2.266H16.4a2.266 2.266 0 01-2.133-2.266v-48.4a2 2 0 011.866-2H39.6zm-26.267 50.4a3.064 3.064 0 001.862 2.954c.38.163.79.246 1.205.246h23.2a3.066 3.066 0 003.067-3.2V3.6A3.067 3.067 0 0039.6.533H16.133a2.8 2.8 0 00-2.8 2.934" fill="#37517E"/><path d="M21.732 1.2h12.534v1.067A1.467 1.467 0 0132.932 3.6h-9.866a1.467 1.467 0 01-1.334-1.333V1.2z" fill="#37517E"/></g><defs><linearGradient id="paint0_linear" x1="9.56" y1="54.92" x2="46.44" y2="54.92" gradientUnits="userSpaceOnUse"><stop stop-opacity="0"/><stop offset=".07" stop-opacity=".16"/><stop offset=".5" stop-opacity=".3"/><stop offset=".93" stop-opacity=".16"/><stop offset="1" stop-opacity="0"/></linearGradient><clipPath id="clip0"><path fill="#fff" d="M0 0h56v56H0z"/></clipPath></defs></svg>