<svg width="56" height="56" fill="none" xmlns="http://www.w3.org/2000/svg"><path d="M49.2 51.33H6.8v1.07h42.4v-1.07z" fill="url(#paint0_linear)"/><path d="M22.53 3.33l-2.4 25.6 13.74 1.47L36.4 4.8 22.53 3.33z" fill="#A7E2F9"/><path d="M22.53 3.33l-2.4 25.6 13.74 1.47L36.4 4.8 22.53 3.33zM32 5.47a3.8 3.8 0 002.8 4L33.2 25.6c-.93 0-1.73.4-2.4 1.07a4.2 4.2 0 00-1.2 2.26l-5.07-.53a4.8 4.8 0 00-.8-2.67c-.53-.8-1.2-1.2-2.13-1.46l1.6-16a3.97 3.97 0 003.6-3.47l5.2.67z" fill="#77D9F7"/><path d="M8.13 12.8l8.4 24.4 13.2-4.4L21.2 8.4 8.13 12.8z" fill="#A7E2F9"/><path d="M8.13 12.8l8.4 24.4 13.2-4.4L21.2 8.4 8.13 12.8zm9.34-2c.26.93.8 1.6 1.6 2 .8.53 1.73.67 2.66.53l5.47 15.34a3.6 3.6 0 00-1.87 4.53l-5.06 1.73c-.27-.93-.8-1.6-1.6-2A3.75 3.75 0 0016 32.4l-5.33-15.33a3.6 3.6 0 001.86-4.54l4.94-1.73z" fill="#77D9F7"/><path d="M18.67 25.07c1.2.13 2.26-.8 2.4-2 .13-1.2-.67-2.4-2-2.54-1.2-.13-2.27.8-2.4 2-.27 1.2.53 2.27 1.73 2.54h.27z" fill="#77D9F7"/><path d="M38.27 37.87L49.2 15.33 37.07 9.47 26 32l12.27 5.87z" fill="#A7E2F9"/><path d="M38.27 37.87L49.2 15.33 37.07 9.47 26 32l12.27 5.87zm-7.87-4.94c.4-.8.4-1.73.13-2.53a3.02 3.02 0 00-1.46-2.13L36 14.13c.8.27 1.73.27 2.53-.13.8-.4 1.47-1.07 1.87-1.87l4.53 2.27a3.39 3.39 0 001.34 4.53L39.33 33.2a3.35 3.35 0 00-2.53.13c-.8.27-1.47.94-1.87 1.74l-4.53-2.14z" fill="#77D9F7"/><path d="M37.47 25.73c1.2.14 2.13-.8 2.26-2 .14-1.2-.8-2.13-2-2.26-1.2-.14-2.13.8-2.26 2-.14 1.2.8 2.13 2 2.26z" fill="#77D9F7"/><path d="M44.93 52.13H9.2V24.67h35.6c.67-.14 1.2.4 1.33 1.06V50.8c0 .27-.13.67-.4.8-.13.4-.4.53-.8.53z" fill="#485CC7"/><path d="M36.93 34.93h9.87v6.94h-9.87c-1.2 0-2.13-.94-2.26-2.14v-2.66c-.14-1.07.8-2 1.86-2.14h.4z" fill="#37517E"/><path d="M28 18c1.2.13 2.13-.8 2.27-2 .13-1.2-.8-2.13-2-2.27-1.2-.13-2.14.8-2.27 2-.13 1.2.93 2.14 2 2.27z" fill="#77D9F7"/><defs><linearGradient id="paint0_linear" x1="6.8" y1="51.87" x2="49.2" y2="51.87" gradientUnits="userSpaceOnUse"><stop stop-opacity="0"/><stop offset=".07" stop-opacity=".16"/><stop offset=".5" stop-opacity=".3"/><stop offset=".93" stop-opacity=".16"/><stop offset="1" stop-opacity="0"/></linearGradient></defs></svg>